<svg width="30" height="30" xmlns="http://www.w3.org/2000/svg">

 <g>
  <title>background</title>
  <rect fill="none" id="canvas_background" height="402" width="582" y="-1" x="-1"/>
 </g>
 <g>
  <title>Layer 1</title>
  <path fill="#ff8c00" id="svg_1" d="m15,5c-6.075,0 -11,4.925 -11,11c0,6.075 4.925,11 11,11s11,-4.925 11,-11c0,-6.075 -4.925,-11 -11,-11zm1,12l-6.005,0c-0.55,0 -0.995,-0.445 -0.995,-0.995l0,-0.011c0,-0.549 0.445,-0.994 0.995,-0.994l4.005,0l0,-6.005c0,-0.55 0.445,-0.995 0.995,-0.995l0.011,0c0.549,0 0.994,0.445 0.994,0.995l0,8.005z"/>
  <line fill-opacity="0" id="svg_2" fill="none" stroke="#ff8c00" stroke-width="2" stroke-linecap="round" stroke-miterlimit="10" y2="26.070621" y1="22.070621" x2="24" x1="20"/>
  <line id="svg_3" fill="none" stroke="#ff8c00" stroke-width="2" stroke-linecap="round" stroke-miterlimit="10" y2="26" y1="22" x2="6" x1="10"/>
  <path fill="#ff8c00" id="svg_4" d="m26.701,10.701c1.788,-2.071 1.721,-5.191 -0.245,-7.156c-1.966,-1.966 -5.085,-2.032 -7.156,-0.245l7.401,7.401z"/>
  <path fill="#ff8c00" id="svg_5" d="m10.689,3.288c-2.072,-1.788 -5.191,-1.721 -7.157,0.244c-1.965,1.966 -2.032,5.085 -0.244,7.157l7.401,-7.401z"/>
 </g>
</svg>